Exact Audio Copy V1.3 from 2. September 2016

EAC extraction logfile from 11. December 2016, 0:14

Die Toten Hosen / Alles was war

Used drive  : SONY    DVD RW DW-Q31A   Adapter: 1  ID: 0

Read mode               : Secure
Utilize accurate stream : Yes
Defeat audio cache      : Yes
Make use of C2 pointers : No

Read offset correction                      : 6
Overread into Lead-In and Lead-Out          : No
Fill up missing offset samples with silence : Yes
Delete leading and trailing silent blocks   : No
Null samples used in CRC calculations       : Yes
Used interface                              : Native Win32 interface for Win NT & 2000
Gap handling                                : Appended to previous track

Used output format              : User Defined Encoder
Selected bitrate                : 768 kBit/s
Quality                         : High
Add ID3 tag                     : No
Command line compressor         : C:\Program Files (x86)\Exact Audio Copy\FLAC\FLAC.EXE
Additional command line options : -8 -e -p -V -T "ARTIST=%artist%" -T "TITLE=%title%" -T "ALBUM=%albumtitle%" -T "DATE=%year%" -T "TRACKNUMBER=%tracknr%" -T "GENRE=%genre%" -T "PERFORMER=%albuminterpret%" -T "COMPOSER=%composer%" %haslyrics%--tag-from-file=LYRICS="%lyricsfile%"%haslyrics% -T "ALBUMARTIST=%albumartist%" -T "DISCNUMBER=%cdnumber%" -T "TOTALDISCS=%totalcds%" -T "TOTALTRACKS=%numtracks%" -T "COMMENT=%comment%" %source% -o %dest%


TOC of the extracted CD

     Track |   Start  |  Length  | Start sector | End sector 
    ---------------------------------------------------------
        1  |  0:00.00 |  3:11.47 |         0    |    14371   
        2  |  3:11.47 |  2:57.64 |     14372    |    27710   
        3  |  6:09.36 |  3:01.30 |     27711    |    41315   


Track  1

     Filename C:\music\Die Toten Hosen - Alles was war (2009) - FLAC\01 Alles was war.wav

     Pre-gap length  0:00:02.00

     Peak level 98.9 %
     Extraction speed 2.0 X
     Track quality 100.0 %
     Test CRC 869448B8
     Copy CRC 869448B8
     Accurately ripped (confidence 4)  [62978ACD]  (AR v2)
     Copy OK

Track  2

     Filename C:\music\Die Toten Hosen - Alles was war (2009) - FLAC\02 Kaufen geh’n.wav

     Pre-gap length  0:00:02.00

     Peak level 98.9 %
     Extraction speed 2.0 X
     Track quality 100.0 %
     Test CRC B7700EDB
     Copy CRC B7700EDB
     Accurately ripped (confidence 4)  [B8EB9063]  (AR v2)
     Copy OK

Track  3

     Filename C:\music\Die Toten Hosen - Alles was war (2009) - FLAC\03 Sorgen um Thomas.wav

     Pre-gap length  0:00:02.00

     Peak level 98.9 %
     Extraction speed 2.0 X
     Track quality 100.0 %
     Test CRC 2070269D
     Copy CRC 2070269D
     Accurately ripped (confidence 4)  [996CB300]  (AR v2)
     Copy OK


All tracks accurately ripped

No errors occurred

End of status report

---- CUETools DB Plugin V2.1.6

[CTDB TOCID: 2o3xcCc7CTLin3lLbN00C8GQLh8-] found
Submit result: 2o3xcCc7CTLin3lLbN00C8GQLh8- has been confirmed
Track | CTDB Status
  1   | (9/9) Accurately ripped
  2   | (9/9) Accurately ripped
  3   | (9/9) Accurately ripped


==== Log checksum B87329097185BB99031B35F90749EC4B82B4D8CA2CD23FFBD9575BB3D6E94613 ====
